PathFileType  4	(X/Y/Z) C:\Users\wagnerel85475\Documents\Thesis\opencap-core\Data\3375ffbc-daeb-4a43-b4f7-ac9899cd4c71\MarkerData\PreAugmentation
DataRate	CameraRate	NumFrames	NumMarkers	Units	OrigDataRate	OrigDataStartFrame	OrigNumFrames
60.0	60.0	15	20	m	60.0	206	822
Frame#	Time	Neck			RShoulder			RElbow			RWrist			LShoulder			LElbow			LWrist			midHip			RHip			RKnee			RAnkle			LHip			LKnee			LAnkle			LBigToe			LSmallToe			LHeel			RBigToe			RSmallToe			RHeel			
		X1	Y1	Z1	X2	Y2	Z2	X3	Y3	Z3	X4	Y4	Z4	X5	Y5	Z5	X6	Y6	Z6	X7	Y7	Z7	X8	Y8	Z8	X9	Y9	Z9	X10	Y10	Z10	X11	Y11	Z11	X12	Y12	Z12	X13	Y13	Z13	X14	Y14	Z14	X15	Y15	Z15	X16	Y16	Z16	X17	Y17	Z17	X18	Y18	Z18	X19	Y19	Z19	X20	Y20	Z20	

206	3.4166667	0.7701900	0.8695400	-0.0454800	0.7818700	0.8773300	0.1136500	1.0060000	0.7415700	0.1778200	1.3276700	0.8029000	0.0871000	0.7947500	0.8768000	-0.2196400	1.1105400	0.7274600	-0.2499000	1.4028700	0.8014200	-0.1066800	0.3298100	0.4518200	-0.0513900	0.3343300	0.4539300	0.0642700	0.7387700	0.2832800	0.1771000	0.5349800	-0.1845800	0.1242000	0.3258700	0.4559800	-0.1730100	0.7299400	0.2867000	-0.2711500	0.5358200	-0.2000000	-0.2543800	0.7541000	-0.2243000	-0.3221300	0.7089800	-0.2263700	-0.3477700	0.4622200	-0.2506100	-0.2511400	0.6785200	-0.2392700	0.2423500	0.6430000	-0.2337700	0.2516600	0.5180100	-0.2129400	0.0938000
207	3.4333333	0.7654400	0.8965600	-0.0425200	0.7774800	0.9003800	0.1161500	1.0029600	0.7616600	0.1767000	1.3163300	0.8229800	0.0818900	0.7785200	0.9015600	-0.2128500	1.0666900	0.7606200	-0.2383400	1.3906200	0.8082800	-0.1156100	0.3287500	0.4677600	-0.0471800	0.3421200	0.4704000	0.0658100	0.7330300	0.2860000	0.1796300	0.5345900	-0.1827100	0.1237900	0.3252300	0.4743600	-0.1684900	0.7192100	0.2888800	-0.2711400	0.5357400	-0.1981300	-0.2540500	0.7534900	-0.2226700	-0.3171700	0.7042100	-0.2279900	-0.3455100	0.4504400	-0.2551000	-0.2510100	0.6744000	-0.2416500	0.2440800	0.6430200	-0.2338500	0.2515500	0.5134200	-0.2135000	0.0950900
208	3.4500000	0.7536100	0.9219500	-0.0472200	0.7771300	0.9215000	0.1160300	1.0050200	0.7942200	0.1774600	1.3061500	0.8464400	0.0785000	0.7944300	0.9247600	-0.2244500	1.0572900	0.7846400	-0.2426900	1.3637600	0.8211500	-0.1291900	0.3296500	0.4881900	-0.0466600	0.3470700	0.4950900	0.0681500	0.7284000	0.2873700	0.1782300	0.5299100	-0.1845300	0.1264600	0.3239300	0.4894800	-0.1684400	0.7193100	0.2905200	-0.2709200	0.5354900	-0.1979400	-0.2540300	0.7538600	-0.2201800	-0.3170600	0.7087300	-0.2265600	-0.3433700	0.4564900	-0.2550100	-0.2529900	0.6788600	-0.2397900	0.2415900	0.6428000	-0.2355400	0.2519900	0.5126400	-0.2158000	0.0957300
209	3.4666667	0.7484900	0.9438500	-0.0491200	0.7717800	0.9457400	0.1142000	1.0028100	0.8119400	0.1727200	1.3203500	0.8671400	0.0834100	0.7929700	0.9493300	-0.2289400	1.0633500	0.8093800	-0.2418500	1.3682400	0.8435900	-0.1275800	0.3279200	0.5061900	-0.0475100	0.3408100	0.5073400	0.0659500	0.7216200	0.2909900	0.1757000	0.5292600	-0.1864000	0.1267400	0.3281200	0.5111700	-0.1714400	0.7134300	0.2960200	-0.2728500	0.5302000	-0.2000400	-0.2517500	0.7531200	-0.2228500	-0.3128600	0.7091800	-0.2263000	-0.3432600	0.4446700	-0.2571100	-0.2486300	0.6849300	-0.2378500	0.2429800	0.6488900	-0.2316500	0.2531300	0.5072200	-0.2203000	0.0943500
210	3.4833333	0.7421600	0.9670100	-0.0515300	0.7552200	0.9748200	0.1177400	0.9863300	0.8381400	0.1698600	1.3009200	0.8875800	0.0726400	0.7924900	0.9747300	-0.2292200	1.0556200	0.8309100	-0.2467400	1.3610100	0.8677800	-0.1316200	0.3347000	0.5283000	-0.0493500	0.3456000	0.5287900	0.0683700	0.7063800	0.2923300	0.1754000	0.5297800	-0.1865100	0.1268200	0.3359900	0.5339000	-0.1736900	0.7087000	0.2964700	-0.2749000	0.5355000	-0.1979100	-0.2540100	0.7487100	-0.2242100	-0.3152800	0.7086100	-0.2244000	-0.3430100	0.4563500	-0.2526200	-0.2487700	0.6892300	-0.2377700	0.2408600	0.6534400	-0.2316900	0.2509100	0.5128100	-0.2205900	0.0967700
211	3.5000000	0.7573600	0.9997900	-0.0539500	0.7493700	1.0028800	0.1159500	0.9759600	0.8600100	0.1667100	1.3056600	0.9116800	0.0704700	0.7956900	1.0026500	-0.2315900	1.0581900	0.8507100	-0.2483700	1.4152100	0.9055700	-0.1051300	0.3268400	0.5443100	-0.0518200	0.3386200	0.5422700	0.0662700	0.7053200	0.3013300	0.1746800	0.5292300	-0.1864100	0.1267700	0.3409200	0.5553900	-0.1768300	0.7029600	0.3020400	-0.2764800	0.5357300	-0.1959000	-0.2536800	0.7534100	-0.2227000	-0.3171400	0.7091800	-0.2262500	-0.3432700	0.4619300	-0.2489900	-0.2507300	0.6883400	-0.2380100	0.2364300	0.6533500	-0.2315500	0.2508200	0.5020100	-0.2196700	0.0973700
212	3.5166667	0.7521200	1.0267900	-0.0475300	0.7504500	1.0184200	0.1249300	0.9935700	0.8672300	0.1729700	1.3040800	0.9328900	0.0705200	0.7963200	1.0278900	-0.2318400	1.0593300	0.8756200	-0.2490500	1.4154000	0.9364000	-0.1051400	0.3339600	0.5606000	-0.0494800	0.3449500	0.5601300	0.0683300	0.7004600	0.3001900	0.1730000	0.5237000	-0.1884400	0.1250600	0.3347000	0.5666900	-0.1739600	0.6876300	0.3018900	-0.2797600	0.5354400	-0.1957100	-0.2536700	0.7487400	-0.2264400	-0.3156100	0.7087400	-0.2265300	-0.3433500	0.4625500	-0.2509100	-0.2549500	0.6740400	-0.2435300	0.2446400	0.6489000	-0.2315900	0.2532800	0.5013500	-0.2200700	0.0976200
213	3.5333333	0.7409100	1.0431600	-0.0558000	0.7451900	1.0402500	0.1229100	0.9933100	0.8963200	0.1676700	1.3009900	0.9579300	0.0688900	0.7903200	1.0516600	-0.2341500	1.0572900	0.9002200	-0.2525800	1.3994400	0.9571200	-0.1132200	0.3327500	0.5798100	-0.0496800	0.3367400	0.5791500	0.0667000	0.6992900	0.3041900	0.1729900	0.5230500	-0.1860100	0.1253300	0.3409000	0.5845200	-0.1720300	0.6770900	0.3079200	-0.2802400	0.5356200	-0.1916700	-0.2537000	0.7432400	-0.2245600	-0.3175600	0.6987600	-0.2259300	-0.3434100	0.4742500	-0.2414800	-0.2494200	0.6633100	-0.2448500	0.2459500	0.6428100	-0.2337500	0.2516200	0.5020600	-0.2167500	0.0976500
214	3.5500000	0.7348500	1.0677800	-0.0539800	0.7270800	1.0691800	0.1173600	0.9805600	0.9277900	0.1677500	1.3066800	0.9767100	0.0642100	0.7839800	1.0700700	-0.2321600	1.0489300	0.9185000	-0.2572400	1.3801500	0.9677800	-0.1228600	0.3519600	0.5996800	-0.0479400	0.3628200	0.5995000	0.0696600	0.6948200	0.3048400	0.1710200	0.5175400	-0.1879900	0.1236100	0.3514800	0.6023700	-0.1721800	0.6668600	0.3090500	-0.2757800	0.5353800	-0.1871700	-0.2530400	0.7336100	-0.2278900	-0.3179100	0.6983300	-0.2281100	-0.3431300	0.4808800	-0.2351400	-0.2465100	0.6619300	-0.2427200	0.2422200	0.6429300	-0.2337500	0.2516600	0.5066000	-0.2138800	0.0949200
215	3.5666667	0.7303100	1.0919400	-0.0512000	0.7346600	1.0914600	0.1233500	0.9943000	0.9580200	0.1739600	1.3114100	0.9971700	0.0619500	0.7827300	1.0989800	-0.2321700	1.0449800	0.9400500	-0.2602100	1.3602500	0.9861900	-0.1328300	0.3507700	0.6107100	-0.0436700	0.3637100	0.6169500	0.0741800	0.6935700	0.3087600	0.1709900	0.5230200	-0.1860100	0.1253300	0.3502000	0.6170200	-0.1676600	0.6611500	0.3083000	-0.2734800	0.5354600	-0.1852500	-0.2534300	0.7384800	-0.2259500	-0.3190600	0.6938200	-0.2295600	-0.3452600	0.4855500	-0.2311000	-0.2446300	0.6573300	-0.2428400	0.2444000	0.6369200	-0.2359800	0.2500100	0.5071600	-0.2175200	0.0946800
216	3.5833333	0.7289400	1.1176500	-0.0518400	0.7277200	1.1148200	0.1215800	0.9722500	0.9856700	0.1664800	1.3054300	1.0176900	0.0604100	0.7672700	1.1241200	-0.2301600	1.0395200	0.9652100	-0.2619900	1.3842000	1.0128800	-0.1207300	0.3519700	0.6310500	-0.0432200	0.3642200	0.6269300	0.0740500	0.6889300	0.3076400	0.1692700	0.5174500	-0.1880500	0.1236000	0.3693000	0.6351900	-0.1653200	0.6507800	0.3095000	-0.2690200	0.5353100	-0.1807700	-0.2527100	0.7340600	-0.2274300	-0.3215600	0.6986300	-0.2278900	-0.3474800	0.4860500	-0.2289100	-0.2397100	0.6618700	-0.2402300	0.2425700	0.6367400	-0.2356200	0.2507700	0.4951600	-0.2217800	0.0957500
217	3.6000000	0.7239700	1.1407700	-0.0535500	0.7223500	1.1390400	0.1195300	0.9683000	1.0161800	0.1650600	1.3062500	1.0360900	0.0562100	0.7711600	1.1401700	-0.2369400	1.0400300	0.9898600	-0.2710300	1.3441700	1.0269600	-0.1371300	0.3626000	0.6423900	-0.0441700	0.3743800	0.6461000	0.0737800	0.6875100	0.3157900	0.1692800	0.5064700	-0.1992600	0.1296100	0.3730200	0.6467900	-0.1636600	0.6503400	0.3141200	-0.2689700	0.5298900	-0.1785000	-0.2504900	0.7333500	-0.2259100	-0.3216600	0.6936400	-0.2256100	-0.3453400	0.4909100	-0.2250500	-0.2378100	0.6480700	-0.2388900	0.2490600	0.6366200	-0.2336700	0.2503500	0.4855100	-0.2333500	0.1018100
218	3.6166667	0.7180200	1.1621600	-0.0516100	0.7167200	1.1606600	0.1221300	0.9696200	1.0357400	0.1658000	1.3039200	1.0535500	0.0523200	0.7407400	1.1634000	-0.2280100	1.0345800	1.0048300	-0.2729000	1.3526600	1.0529900	-0.1285500	0.3699400	0.6628800	-0.0418500	0.3822000	0.6612900	0.0753200	0.6829300	0.3205800	0.1672700	0.5068900	-0.1917000	0.1289900	0.3746900	0.6672900	-0.1632200	0.6454600	0.3187000	-0.2669700	0.5293400	-0.1763800	-0.2508100	0.7234300	-0.2295000	-0.3176100	0.6879600	-0.2298700	-0.3435700	0.4911100	-0.2247500	-0.2378200	0.6572700	-0.2370000	0.2441800	0.6416100	-0.2318400	0.2477100	0.4898800	-0.2250700	0.0987800
219	3.6333333	0.7232700	1.1808500	-0.0536800	0.7116400	1.1787600	0.1200600	0.9755300	1.0410500	0.1638900	1.3005500	1.0698400	0.0506300	0.7648800	1.1879600	-0.2349000	1.0300600	1.0213900	-0.2756000	1.3675900	1.0769800	-0.1171900	0.3797400	0.6804400	-0.0477300	0.3869000	0.6791800	0.0726500	0.6645200	0.3184500	0.1617400	0.5065100	-0.1941800	0.1285700	0.3835100	0.6794000	-0.1643300	0.6436900	0.3236100	-0.2659400	0.5296200	-0.1765100	-0.2508600	0.7279100	-0.2280500	-0.3151200	0.6933800	-0.2278700	-0.3412700	0.4847300	-0.2247600	-0.2358300	0.6573900	-0.2370100	0.2440300	0.6366600	-0.2336800	0.2503300	0.4849000	-0.2294500	0.1009100
220	3.6500000	0.7173500	1.2076100	-0.0518500	0.7105000	1.2045000	0.1200900	0.9733400	1.0603800	0.1591400	1.2905900	1.0905200	0.0429400	0.7545400	1.2069400	-0.2350900	1.0292600	1.0458100	-0.2753200	1.3205500	1.0825300	-0.1442400	0.3877700	0.6915200	-0.0456500	0.3943300	0.6914700	0.0743800	0.6538800	0.3199800	0.1581300	0.5070600	-0.1941700	0.1286300	0.3844800	0.6927100	-0.1641600	0.6386100	0.3261500	-0.2637200	0.5293100	-0.1764000	-0.2508200	0.7388800	-0.2257200	-0.3193400	0.6986400	-0.2278900	-0.3474600	0.4850400	-0.2245100	-0.2358300	0.6763300	-0.2315600	0.2337500	0.6465800	-0.2302100	0.2449700	0.4906300	-0.2283700	0.1030000
